# Blender 4.0.1
# www.blender.org
o cutter3.002
v -0.386430 0.372386 -0.156481
v -0.386430 -0.372581 -0.156481
v 0.358536 0.372386 -0.156481
v 0.358536 -0.372581 -0.156481
v 0.918254 0.193788 3.989187
v 0.918254 -1.253633 3.989187
v 2.365675 0.193788 3.989187
v 2.365675 -1.253633 3.989187
v -0.386430 0.372386 -0.156481
v -0.386430 -0.372580 -0.156481
v 0.358536 0.372386 -0.156481
v 0.358536 -0.372580 -0.156481
v -2.106347 0.193788 3.989187
v -2.106347 -1.253632 3.989187
v -0.658926 0.193788 3.989187
v -0.658926 -1.253632 3.989187
vn -0.0000 -0.0000 -1.0000
vn -0.0000 -0.0000 1.0000
vn -0.0000 -0.9782 -0.2079
vn -0.0000 0.9991 0.0430
vn 0.9001 -0.0000 -0.4358
vn -0.9539 -0.0000 0.3002
vn 0.9712 -0.0000 0.2384
vn -0.9237 -0.0000 -0.3832
s 0
f 1//1 3//1 4//1 2//1
f 5//2 6//2 8//2 7//2
f 2//3 4//3 8//3 6//3
f 3//4 1//4 5//4 7//4
f 4//5 3//5 7//5 8//5
f 1//6 2//6 6//6 5//6
f 9//1 11//1 12//1 10//1
f 13//2 14//2 16//2 15//2
f 10//3 12//3 16//3 14//3
f 11//4 9//4 13//4 15//4
f 12//7 11//7 15//7 16//7
f 9//8 10//8 14//8 13//8
