# Blender 4.0.1
# www.blender.org
o cutter2
v -1.673310 -0.393099 -0.148039
v -0.887112 -0.393099 -0.148039
v -1.673310 0.393099 -0.148039
v -0.887112 0.393099 -0.148039
v 0.696115 0.625273 2.608716
v 1.482313 0.625273 2.608716
v 0.696115 1.411472 2.608716
v 1.482313 1.411472 2.608716
v -0.641702 0.625273 4.007041
v 0.144496 0.625273 4.007041
v -0.641702 1.411472 4.007041
v 0.144496 1.411472 4.007041
v -0.641702 0.625273 5.772470
v 0.144496 0.625273 5.772470
v -0.641702 1.411472 5.772470
v 0.144496 1.411472 5.772470
vn -0.0000 -0.0000 -1.0000
vn 0.7226 -0.0000 0.6913
vn -0.0000 -0.9380 0.3465
vn 0.7584 -0.0000 -0.6518
vn -0.7584 -0.0000 0.6518
vn -0.0000 0.9380 -0.3465
vn -1.0000 -0.0000 -0.0000
vn -0.7226 -0.0000 -0.6913
vn -0.0000 1.0000 -0.0000
vn -0.0000 -1.0000 -0.0000
vn -0.0000 -0.0000 1.0000
vn 1.0000 -0.0000 -0.0000
s 0
f 1//1 3//1 4//1 2//1
f 6//2 8//2 12//2 10//2
f 1//3 2//3 6//3 5//3
f 2//4 4//4 8//4 6//4
f 3//5 1//5 5//5 7//5
f 4//6 3//6 7//6 8//6
f 11//7 9//7 13//7 15//7
f 7//8 5//8 9//8 11//8
f 8//9 7//9 11//9 12//9
f 5//10 6//10 10//10 9//10
f 13//11 14//11 16//11 15//11
f 12//9 11//9 15//9 16//9
f 9//10 10//10 14//10 13//10
f 10//12 12//12 16//12 14//12
