# Blender 4.0.1
# www.blender.org
o cutter3
v -0.372483 0.372483 -0.156481
v -0.372483 -0.372483 -0.156481
v 0.372483 0.372483 -0.156481
v 0.372483 -0.372483 -0.156481
v 0.932202 0.193885 3.989187
v 0.932202 -1.253535 3.989187
v 2.379622 0.193885 3.989187
v 2.379622 -1.253535 3.989187
vn -0.0000 -0.0000 -1.0000
vn -0.0000 -0.0000 1.0000
vn -0.0000 -0.9782 -0.2079
vn -0.0000 0.9991 0.0430
vn 0.9001 -0.0000 -0.4358
vn -0.9539 -0.0000 0.3002
s 0
f 1//1 3//1 4//1 2//1
f 5//2 6//2 8//2 7//2
f 2//3 4//3 8//3 6//3
f 3//4 1//4 5//4 7//4
f 4//5 3//5 7//5 8//5
f 1//6 2//6 6//6 5//6
