# Blender 4.0.1
# www.blender.org
o cutter3
v -0.372483 0.372483 -0.156481
v -0.372483 -0.372483 -0.156481
v 0.372483 0.372483 -0.156481
v 0.372483 -0.372483 -0.156481
v -1.741173 -0.157342 3.545323
v -1.741173 -0.902308 3.545323
v -0.996206 -0.157342 3.545323
v -0.996206 -0.902308 3.545323
vn -0.0000 -0.0000 -1.0000
vn -0.0000 -0.0000 1.0000
vn -0.0000 -0.9899 -0.1417
vn -0.0000 0.9899 0.1417
vn 0.9379 -0.0000 0.3468
vn -0.9379 -0.0000 -0.3468
s 0
f 1//1 3//1 4//1 2//1
f 5//2 6//2 8//2 7//2
f 2//3 4//3 8//3 6//3
f 3//4 1//4 5//4 7//4
f 4//5 3//5 7//5 8//5
f 1//6 2//6 6//6 5//6
