o mesh_1345
v 2.9995857864376267 1.3983819660112504 1.001
v 3.266940618138376 1.2647045501608758 1.2683548317007491
v 3.4006180339887506 1.3983819660112502 1.001
v 2.9995857864376267 1.3983819660112504 1.001
v 2.9995857864376267 1.3995000000000002 1.001
v 3.266940618138376 1.600016123775562 1.268354831700749
v 2.9995857864376267 1.3983819660112504 1.001
v 3.4006180339887506 1.3983819660112502 1.001
v 3.4006180339887506 1.3995000000000002 1.001
vn 0.0 0.894427190999916 0.447213595499958
vn 0.7071067811865475 -0.0 -0.7071067811865475
vn 0.0 0.0 1.0
vn -0.894427190999916 -0.0 -0.447213595499958
vn 0.0 -0.8000000000000002 0.6
s 0
f 1//1 2//1 3//1
f 1//2 5//2 6//2 2//2
f 1//3 3//3 9//3 5//3
f 3//4 2//4 6//4 9//4
f 9//5 6//5 5//5
