o mesh_350
v 1.499 0.0 2.787917237469702
v 1.499 0.0 4.336943650631616
v 1.7010469234559018 0.0 4.000198778205112
v 1.499 0.0 2.787917237469702
v 1.499 0.7332578477953783 2.7879172374697023
v 1.499 1.29894384454101 4.000101516210342
v 1.499 1.2147333109356917 4.336943650631616
v 1.499 0.0 2.787917237469702
v 1.7010469234559018 0.0 4.000198778205112
v 1.7010469234559018 1.2989195290423177 4.000198778205112
v 1.7010307131234401 1.2989438445410102 4.000101516210342
vn -0.0 1.0 -0.0
vn 1.0 -0.0 -0.0
vn -0.9863939238321437 -0.0 0.1643989873053573
vn 0.0 -0.9061831399952655 0.4228854653311239
vn -0.8574929257125441 -0.0 -0.5144957554275265
vn -0.0 -0.9701425001453318 -0.24253562503633294
s 0
f 1//1 2//1 3//1
f 1//2 5//2 6//2 7//2 2//2
f 1//3 3//3 10//3 11//3 5//3
f 5//4 11//4 6//4
f 3//5 2//5 7//5 10//5
f 11//6 10//6 7//6 6//6
