o mesh_1636
v 1.499 1.7990000000000002 2.1001622776601687
v 1.499 0.814512592598562 2.1001622776601687
v 1.9932280842578889 1.5064319105596065 3.5828465304338355
v 1.9932280842578889 1.7990000000000002 3.582846530433835
v 1.499 0.814512592598562 2.1001622776601687
v 1.499 1.7990000000000002 2.1001622776601687
v 1.499 1.7990000000000002 3.732798149574845
v 1.499 1.6292274572397203 3.8459798447483653
v 1.499 1.7990000000000002 2.1001622776601687
v 1.9932280842578889 1.7990000000000002 3.582846530433835
v 1.8882619508591818 1.7990000000000002 3.7327981495748452
v 1.9932280842578889 1.5064319105596065 3.5828465304338355
v 1.499 0.814512592598562 2.1001622776601687
v 1.499 1.6292274572397203 3.8459798447483653
v 1.809034764237718 1.6292274572397203 3.8459798447483653
vn -0.9486832980505139 0.0 0.31622776601683794
vn 1.0 -0.0 -0.0
vn 0.0 -1.0 0.0
vn 0.0 0.9061831399952655 -0.4228854653311238
vn -0.8192319205190404 -0.0 -0.5734623443633285
vn -0.0 -0.5547001962252293 -0.8320502943378436
s 0
f 1//1 2//1 3//1 4//1
f 2//2 1//2 7//2 8//2
f 1//3 4//3 11//3 7//3
f 3//4 2//4 8//4 15//4
f 3//5 15//5 11//5 4//5
f 8//6 7//6 11//6 15//6
