o mesh_1715
v 0.799 4.0 6.0
v 0.799 1.2010307764064043 6.0
v 0.799 1.4927666890643083 4.833056349368384
v 0.799 4.0 4.833056349368385
v 1.2989530765440982 4.0 3.999801221794888
v 0.799 4.0 4.833056349368385
v 0.799 1.4927666890643083 4.833056349368384
v 1.2989530765440982 1.7010804709576823 3.9998012217948875
v 0.799 4.0 6.0
v 0.799 4.0 4.833056349368385
v 1.2989530765440982 4.0 3.999801221794888
v 1.2990000000000002 4.0 4.000082762530299
v 1.2990000000000002 4.0 6.0
v 0.799 1.2010307764064043 6.0
v 0.799 4.0 6.0
v 1.2990000000000002 4.0 6.0
v 1.2990000000000002 1.2010307764064043 6.0
v 1.2989530765440982 4.0 3.999801221794888
v 1.2989530765440982 1.7010804709576823 3.9998012217948875
v 1.2990000000000002 1.7010100857738295 4.000082762530299
vn 1.0 -0.0 -0.0
vn 0.8574929257125441 -0.0 0.5144957554275266
vn -0.0 -1.0 -0.0
vn -0.0 -0.0 -1.0
vn -0.9863939238321437 0.0 0.1643989873053573
vn -0.0 0.9701425001453318 0.24253562503633294
vn -1.0 0.0 0.0
s 0
f 1//1 2//1 3//1 4//1
f 5//2 4//2 3//2 8//2
f 1//3 4//3 5//3 12//3 13//3
f 2//4 1//4 13//4 17//4
f 5//5 8//5 20//5 12//5
f 8//6 3//6 2//6 17//6 20//6
f 13//7 12//7 20//7 17//7
