o mesh_1505
v 1.9321165728200422 4.0 3.1335307863824156
v 1.9163467029086854 4.0 3.1177609164710587
v 1.9991385199433087 4.0 2.9994868921358826
v 1.9321165728200422 4.0 3.1335307863824156
v 1.9321165728200422 3.101506596064109 3.1335307863824156
v 1.9163467029086854 3.1251614009311446 3.1177609164710587
v 1.9321165728200422 4.0 3.1335307863824156
v 1.9991385199433087 4.0 2.9994868921358826
v 1.999138519943309 3.302572437433909 2.999486892135882
vn -0.0 -1.0 -0.0
vn 0.7071067811865475 -0.0 -0.7071067811865475
vn -0.894427190999916 0.0 -0.447213595499958
vn 0.8192319205190405 -0.0 0.5734623443633283
vn -0.0 0.554700196225229 0.8320502943378437
s 0
f 1//1 2//1 3//1
f 1//2 5//2 6//2 2//2
f 1//3 3//3 9//3 5//3
f 2//4 6//4 9//4 3//4
f 9//5 6//5 5//5
