o mesh_1535
v 2.200273951471709 3.2000161237755615 3.4016881650340824
v 2.200273951471709 2.6992705280866085 3.4016881650340824
v 1.9777203533877301 3.0331009252125773 3.179134566950103
v 2.200273951471709 3.2000161237755615 3.4016881650340824
v 2.3115507505136987 3.0331009252125773 3.179134566950103
vn 0.7071067811865475 -0.0 -0.7071067811865475
vn -0.894427190999916 -0.0 -0.447213595499958
vn 0.0 -0.8000000000000002 0.6
vn -0.0 0.554700196225229 0.8320502943378437
s 0
f 1//1 2//1 3//1
f 1//2 5//2 2//2
f 1//3 3//3 5//3
f 3//4 2//4 5//4
