o mesh_1755
v 1.499 0.0 6.0
v 1.2990000000000002 0.0 6.0
v 1.2990000000000002 1.2010307764064043 6.0
v 1.499 1.2010307764064043 6.0
v 1.499 0.0 6.0
v 1.499 0.0 5.2000827625302986
v 1.3864166375784328 0.0 4.524582588000895
v 1.2990000000000002 0.0 4.670276983964949
v 1.499 0.0 6.0
v 1.499 1.2010307764064043 6.0
v 1.499 1.3990000000000002 5.208123105625616
v 1.499 1.3990000000000002 5.2000827625302986
v 1.499 0.0 5.2000827625302986
v 1.499 1.3990000000000002 5.2000827625302986
v 1.3864166375784328 1.3990000000000002 4.524582588000895
v 1.499 1.2010307764064043 6.0
v 1.2990000000000002 1.2010307764064043 6.0
v 1.2990000000000002 1.3990000000000002 5.208123105625616
v 1.2990000000000002 0.0 4.670276983964949
v 1.3864166375784328 0.0 4.524582588000895
v 1.3864166375784328 1.3990000000000002 4.524582588000895
v 1.2990000000000002 1.3990000000000002 4.670276983964949
vn -0.0 -0.0 -1.0
vn -0.0 1.0 -0.0
vn -1.0 0.0 0.0
vn -0.9863939238321437 0.0 0.1643989873053573
vn 0.0 -0.9701425001453318 -0.24253562503633294
vn 0.8574929257125441 0.0 0.5144957554275265
vn 1.0 -0.0 -0.0
vn 0.0 -1.0 0.0
s 0
f 1//1 2//1 3//1 4//1
f 1//2 6//2 7//2 8//2 2//2
f 1//3 4//3 11//3 12//3 6//3
f 6//4 12//4 15//4 7//4
f 4//5 3//5 18//5 11//5
f 8//6 7//6 15//6 22//6
f 8//7 22//7 18//7 3//7 2//7
f 18//8 22//8 15//8 12//8 11//8
