o mesh_673
v 2.272775585021316 1.3348469524789137 3.2151644774037793
v 2.0137502638414064 1.3348469524789135 3.2151644774037793
v 2.402288245611271 1.5161646773048503 3.6037024591736437
v 2.272775585021316 1.3348469524789137 3.2151644774037793
v 2.2013874258867228 1.299152872911617 3.0009999999999994
v 1.7995857864376272 1.2991528729116169 3.001
v 2.2013874258867228 1.299152872911617 3.0009999999999994
v 2.272775585021316 1.3348469524789137 3.2151644774037793
v 2.402288245611271 1.5161646773048503 3.6037024591736437
v 2.402288245611271 1.6007331955980721 3.6037024591736437
v 2.2013874258867228 1.29938196601125 3.0009999999999994
v 2.2013874258867228 1.299152872911617 3.0009999999999994
v 2.2013874258867228 1.29938196601125 3.0009999999999994
v 1.7995857864376272 1.2993819660112502 3.001
vn 0.0 0.9061831399952655 -0.4228854653311238
vn -0.0 0.9863939238321436 -0.16439898730535726
vn -0.9486832980505139 -0.0 0.31622776601683805
vn 0.0 0.0 1.0
vn 0.7071067811865477 -0.0 -0.7071067811865475
vn 0.0 -0.894427190999916 0.447213595499958
s 0
f 1//1 2//1 3//1
f 1//2 5//2 6//2 2//2
f 5//3 1//3 3//3 10//3 11//3
f 5//4 11//4 14//4 6//4
f 3//5 2//5 6//5 14//5 10//5
f 11//6 10//6 14//6
