o mesh_1564
v 1.9321165728200422 3.401398089786812 3.1335307863824156
v 1.99838196601125 3.3020000000000005 3.001
v 2.40061803398875 3.3020000000000005 3.001
v 2.200273951471709 3.6025161237755623 3.4016881650340824
v 1.9321165728200422 3.401398089786812 3.1335307863824156
v 2.200273951471709 3.6025161237755623 3.4016881650340824
v 2.200273951471709 3.2000161237755615 3.4016881650340824
v 1.9777203533877301 3.0331009252125773 3.1791345669501037
v 1.9321165728200422 3.1015065960641093 3.1335307863824156
v 1.9321165728200422 3.401398089786812 3.1335307863824156
v 1.9321165728200422 3.1015065960641093 3.1335307863824156
v 1.99838196601125 3.3003027756377326 3.001
v 2.200273951471709 3.6025161237755623 3.4016881650340824
v 2.40061803398875 3.3020000000000005 3.001
v 2.40061803398875 3.3003027756377326 3.001
v 2.3115507505136987 3.0331009252125773 3.179134566950103
vn -0.0 -0.8 0.6000000000000001
vn 0.7071067811865475 -0.0 -0.7071067811865475
vn 0.894427190999916 -0.0 0.447213595499958
vn -0.894427190999916 -0.0 -0.447213595499958
vn -0.0 0.8000000000000002 -0.6
vn 0.0 0.0 1.0
vn -0.0 0.554700196225229 0.8320502943378437
s 0
f 1//1 2//1 3//1 4//1
f 1//2 4//2 7//2 8//2 9//2
f 1//3 9//3 12//3 2//3
f 4//4 3//4 15//4 16//4 7//4
f 7//5 16//5 8//5
f 3//6 2//6 12//6 15//6
f 16//7 15//7 12//7 9//7 8//7
