o mesh_2092
v 1.7359768188655915 1.7990000000000002 4.209778150663251
v 1.7011804604217164 1.70157019635715 4.001
v 1.7011804604217164 1.7007807764064042 4.001
v 1.794533399824093 1.560751367302839 4.561117636414261
v 1.8796221972159364 1.7990000000000002 5.07165042076532
v 1.7359768188655915 1.7990000000000002 4.209778150663251
v 1.8796221972159364 1.7990000000000002 5.07165042076532
v 1.7009999999999998 1.7990000000000002 5.07165042076532
v 1.7009999999999998 1.7990000000000002 4.209778150663251
v 1.7011804604217164 1.70157019635715 4.001
v 1.7359768188655915 1.7990000000000002 4.209778150663251
v 1.7009999999999998 1.7990000000000002 4.209778150663251
v 1.7009999999999998 1.70157019635715 4.001
v 1.8796221972159364 1.7990000000000002 5.07165042076532
v 1.794533399824093 1.560751367302839 4.561117636414261
v 1.7009999999999998 1.560751367302839 4.561117636414261
v 1.7011804604217164 1.70157019635715 4.001
v 1.7009999999999998 1.70157019635715 4.001
v 1.7009999999999998 1.7007807764064042 4.001
vn -0.9863939238321437 -0.0 0.1643989873053573
vn 0.0 -1.0 0.0
vn -0.0 -0.9061831399952655 0.4228854653311238
vn -0.0 0.9061831399952655 -0.4228854653311239
vn 0.0 0.0 1.0
vn -0.0 0.9701425001453318 0.24253562503633294
vn 1.0 0.0 -0.0
s 0
f 1//1 2//1 3//1 4//1 5//1
f 1//2 5//2 8//2 9//2
f 2//3 1//3 9//3 13//3
f 5//4 4//4 16//4 8//4
f 2//5 13//5 19//5 3//5
f 4//6 3//6 19//6 16//6
f 9//7 8//7 16//7 19//7 13//7
