o mesh_656
v 2.501 1.7990000000000002 4.209778150663251
v 2.501 1.7990000000000002 3.8998377223398304
v 2.501 1.6543611334490707 3.8998377223398304
v 2.2022052910010275 1.7990000000000002 4.209778150663251
v 1.870667399914537 1.3348469524789135 3.2151644774037793
v 1.7992792407799438 1.2991528729116169 3.001
v 1.7992792407799438 1.7011804604217162 3.001
v 1.9949183199365117 1.7990000000000002 3.5879172374697035
v 2.501 1.7990000000000002 4.209778150663251
v 2.2022052910010275 1.7990000000000002 4.209778150663251
v 1.9949183199365117 1.7990000000000002 3.5879172374697035
v 2.3865030239073306 1.7990000000000002 3.5879172374697035
v 2.402288245611271 1.7990000000000002 3.6037024591736437
v 2.501 1.7990000000000002 4.209778150663251
v 2.501 1.6543611334490707 3.8998377223398304
v 2.402288245611271 1.5161646773048503 3.6037024591736437
v 2.0137502638414064 1.3348469524789135 3.2151644774037793
v 1.9949183199365117 1.7990000000000002 3.5879172374697035
v 1.7992792407799438 1.7011804604217162 3.001
v 1.7995857864376272 1.7011804604217162 3.001
v 1.7992792407799438 1.2991528729116169 3.001
v 1.870667399914537 1.3348469524789135 3.2151644774037793
v 2.0137502638414064 1.3348469524789135 3.2151644774037793
v 1.7995857864376272 1.2991528729116169 3.001
vn -1.0 -0.0 -0.0
vn 0.9486832980505139 -0.0 -0.31622776601683794
vn 0.0 -1.0 0.0
vn 0.0 0.9061831399952655 -0.4228854653311238
vn -0.0 -0.9863939238321436 0.16439898730535726
vn -0.9486832980505139 -0.0 0.31622776601683805
vn -0.0 0.9863939238321436 -0.16439898730535726
vn 0.0 0.0 1.0
vn -0.7071067811865477 0.0 0.7071067811865475
s 0
f 1//1 2//1 3//1
f 4//2 5//2 6//2 7//2 8//2
f 1//3 4//3 8//3 12//3 13//3 2//3
f 1//4 3//4 16//4 17//4 5//4 4//4
f 8//5 7//5 20//5 12//5
f 2//6 13//6 16//6 3//6
f 6//7 5//7 17//7 24//7
f 6//8 24//8 20//8 7//8
f 20//9 24//9 17//9 16//9 13//9 12//9
