o mesh_495
v 1.499 0.814512592598562 2.1001622776601687
v 1.499 1.149013252521645 2.1001622776601687
v 1.870667399914537 1.3348469524789135 3.2151644774037793
v 1.499 0.25156113344907155 0.893837722339832
v 1.499 0.814512592598562 2.1001622776601687
v 1.8706673999145371 1.3348469524789137 3.2151644774037793
v 2.272775585021316 1.3348469524789137 3.2151644774037793
v 1.499 0.814512592598562 2.1001622776601687
v 1.499 0.25156113344907155 0.893837722339832
v 1.499 0.9479591599682555 0.8938377223398322
vn 0.9486832980505139 -0.0 -0.31622776601683794
vn 0.0 0.9061831399952655 -0.4228854653311238
vn 1.0 -0.0 -0.0
vn -0.9486832980505139 -0.0 0.31622776601683805
vn 0.0 -0.9863939238321436 0.16439898730535726
s 0
f 1//1 2//1 3//1
f 4//2 1//2 3//2 7//2
f 1//3 4//3 10//3 2//3
f 4//4 7//4 10//4
f 3//5 2//5 10//5 7//5
