o mesh_578
v 4.0 0.0 0.0
v 4.0 0.201118033988749 0.0
v 2.501 0.20111803398874883 0.0
v 2.501 0.0 0.0
v 4.0 0.0 0.0
v 2.501 0.0 0.0
v 2.501 0.0 3.2995857864376266
v 4.0 0.0 4.798585786437627
v 4.0 0.0 0.0
v 4.0 0.0 4.798585786437627
v 4.0 2.201 4.798585786437627
v 4.0 2.201 3.9997639320225007
v 4.0 2.201 3.9997639320225007
v 4.0 2.201 4.798585786437627
v 3.2011781455848736 2.201 3.9997639320225007
v 2.501 0.0 0.0
v 2.501 0.20111803398874883 0.0
v 2.501 1.850910927207563 3.2995857864376266
vn -0.0 -0.0 1.0
vn -0.0 1.0 -0.0
vn -1.0 -0.0 -0.0
vn -0.0 -1.0 -0.0
vn 1.0 0.0 0.0
vn -0.0 -0.8944271909999159 0.4472135954999581
vn 0.7071067811865475 0.0 -0.7071067811865475
s 0
f 1//1 2//1 3//1 4//1
f 1//2 4//2 7//2 8//2
f 1//3 8//3 11//3 12//3 2//3
f 12//4 11//4 15//4
f 4//5 3//5 18//5 7//5
f 12//6 15//6 18//6 3//6 2//6
f 18//7 15//7 11//7 8//7 7//7
