o mesh_250
v 1.2989530765440982 0.0 3.9998012217948875
v 0.799 0.0 4.833056349368384
v 0.799 0.0 5.503610317298282
v 1.3864166375784328 0.0 4.524582588000895
v 0.799 0.0 4.833056349368384
v 1.2989530765440982 0.0 3.9998012217948875
v 1.2989530765440982 1.2990189181448737 3.9998012217948875
v 0.799 1.0907051362514997 4.833056349368384
v 0.799 0.0 4.833056349368384
v 0.799 1.0907051362514997 4.833056349368384
v 0.799 0.9230666442690252 5.503610317298282
v 1.2989530765440982 0.0 3.9998012217948875
v 1.3864166375784328 0.0 4.524582588000895
v 1.3864166375784328 1.167823576593372 4.524582588000895
vn -0.0 1.0 -0.0
vn 0.8574929257125441 -0.0 0.5144957554275266
vn 1.0 -0.0 -0.0
vn -0.9863939238321437 0.0 0.1643989873053573
vn -0.8574929257125441 -0.0 -0.5144957554275265
vn -0.0 -0.9701425001453318 -0.24253562503633294
s 0
f 1//1 2//1 3//1 4//1
f 2//2 1//2 7//2 8//2
f 2//3 8//3 11//3 3//3
f 1//4 4//4 14//4 7//4
f 4//5 3//5 11//5 14//5
f 14//6 11//6 8//6 7//6
