o mesh_1500
v 1.499 4.0 0.0
v 1.499 4.0 2.7004142135623734
v 1.499 2.201 2.7004142135623734
v 1.499 2.201 0.0
v 1.499 4.0 0.0
v 1.499 2.201 0.0
v 1.998585786437627 2.201 0.0
v 1.9985857864376273 4.0 0.0
v 1.9985857864376273 4.0 0.0
v 1.998585786437627 2.201 0.0
v 2.998783239486709 2.201 1.0001974530490818
v 2.998783239486709 4.0 1.0001974530490818
v 1.499 2.201 2.7004142135623734
v 1.499 4.0 2.7004142135623734
v 1.9163467029086854 4.0 3.1177609164710587
v 1.9163467029086854 2.201 3.1177609164710587
v 1.499 4.0 2.7004142135623734
v 1.499 4.0 0.0
v 1.9985857864376273 4.0 0.0
v 2.998783239486709 4.0 1.0001974530490818
v 1.9991385199433087 4.0 2.9994868921358826
v 1.499 2.201 0.0
v 1.499 2.201 2.7004142135623734
v 1.9163467029086854 2.201 3.1177609164710587
v 1.9991385199433092 2.201 2.9994868921358817
vn 1.0 -0.0 -0.0
vn -0.0 -0.0 1.0
vn -0.7071067811865475 0.0 0.7071067811865475
vn 0.7071067811865475 -0.0 -0.7071067811865475
vn -0.0 -1.0 -0.0
vn 0.0 1.0 0.0
vn -0.894427190999916 0.0 -0.447213595499958
vn -0.8192319205190405 0.0 -0.5734623443633283
s 0
f 1//1 2//1 3//1 4//1
f 1//2 4//2 7//2 8//2
f 8//3 7//3 11//3 12//3
f 3//4 2//4 15//4 16//4
f 2//5 1//5 8//5 12//5 21//5 15//5
f 4//6 3//6 16//6 25//6 11//6 7//6
f 12//7 11//7 25//7 21//7
f 21//8 25//8 16//8 15//8
