o mesh_1728
v 1.2990000000000002 1.2010307764064043 6.0
v 1.499 1.2010307764064043 6.0
v 1.499 1.3990000000000002 5.208123105625616
v 1.2990000000000002 1.3990000000000002 5.208123105625616
v 1.499 1.2010307764064043 6.0
v 1.499 1.3990000000000002 6.0
v 1.499 1.2010307764064043 6.0
v 1.2990000000000002 1.2010307764064043 6.0
v 1.2990000000000002 1.3990000000000002 6.0
vn -0.0 0.9701425001453318 0.24253562503633294
vn -1.0 0.0 0.0
vn -0.0 -0.0 -1.0
vn 1.0 -0.0 -0.0
vn 0.0 -1.0 0.0
s 0
f 1//1 2//1 3//1 4//1
f 2//2 6//2 3//2
f 2//3 1//3 9//3 6//3
f 1//4 4//4 9//4
f 4//5 3//5 6//5 9//5
