o mesh_926
v 4.0 2.201 5.201414213562374
v 4.0 2.201 4.798585786437627
v 3.799 2.201 4.597585786437627
v 3.799 2.201 5.000414213562373
v 4.0 2.201 4.798585786437627
v 4.0 3.394935504897755 4.798585786437627
v 3.799 2.992935504897755 4.597585786437627
v 3.799 2.201 4.597585786437627
v 3.799 2.201 4.597585786437627
v 3.799 2.992935504897755 4.597585786437627
v 3.799 3.798592359147248 5.000414213562374
v 4.0 2.201 5.201414213562374
v 4.0 3.799 5.201414213562374
v 4.0 3.799 5.00061803398875
v 4.0 2.201 5.201414213562374
v 3.799 2.201 5.000414213562373
v 3.799 3.798592359147248 5.000414213562374
v 3.799203820426376 3.799 5.00061803398875
vn 0.0 1.0 0.0
vn -0.7071067811865475 -0.0 0.7071067811865475
vn 1.0 -0.0 -0.0
vn -1.0 -0.0 -0.0
vn 0.7071067811865475 -0.0 -0.7071067811865475
vn 0.0 -0.447213595499958 0.8944271909999157
vn 0.0 -1.0 0.0
s 0
f 1//1 2//1 3//1 4//1
f 2//2 6//2 7//2 3//2
f 3//3 7//3 11//3 4//3
f 1//4 13//4 14//4 6//4 2//4
f 1//5 4//5 11//5 18//5 13//5
f 6//6 14//6 18//6 11//6 7//6
f 18//7 14//7 13//7
