o mesh_235
v 0.799 0.0 1.334828180449675
v 0.8547909029865629 0.0 1.334828180449675
v 0.799 0.3012708761274393 1.0000827625302982
v 0.799 4.0 1.0000827625302993
v 1.2989530765440982 4.0 3.999801221794888
v 0.799 4.0 4.833056349368385
v 0.8547909029865629 0.0 1.334828180449675
v 0.799 0.0 1.334828180449675
v 0.799 0.0 4.833056349368384
v 1.2989530765440982 0.0 3.9998012217948875
vn -0.0 0.7432941462471664 0.6689647316224496
vn -0.0 -1.0 -0.0
vn -0.0 1.0 -0.0
vn 1.0 -0.0 -0.0
vn -0.9863939238321437 0.0 0.1643989873053573
vn -0.8574929257125441 0.0 -0.5144957554275266
s 0
f 1//1 2//1 3//1
f 4//2 5//2 6//2
f 2//3 1//3 9//3 10//3
f 1//4 3//4 4//4 6//4 9//4
f 4//5 3//5 2//5 10//5 5//5
f 6//6 5//6 10//6 9//6
