o mesh_63
v 0.799 0.0 0.0
v 0.799 0.7986546375952925 0.0
v 0.799 0.0 0.8873940417725473
v 0.799 0.0 0.0
v 0.799 0.0 0.8873940417725473
v 1.2009999999999998 0.0 0.8873940417725473
v 1.2009999999999998 0.0 0.0
v 0.799 0.0 0.0
v 1.2009999999999998 0.0 0.0
v 1.2009999999999998 0.7986546375952925 0.0
vn 1.0 -0.0 -0.0
vn -0.0 1.0 -0.0
vn -0.0 -0.0 1.0
vn -1.0 -0.0 -0.0
vn -0.0 -0.7432941462471664 -0.6689647316224497
s 0
f 1//1 2//1 3//1
f 1//2 3//2 6//2 7//2
f 1//3 7//3 10//3 2//3
f 7//4 6//4 10//4
f 10//5 6//5 3//5 2//5
