o mesh_583
v 2.501 0.0 3.702414213562373
v 4.0 0.0 5.201414213562374
v 4.0 0.0 4.798585786437627
v 2.501 0.0 3.2995857864376266
v 2.501 0.0 3.702414213562373
v 2.501 1.6500890727924369 3.702414213562373
v 3.602821854415126 2.201 4.8042360679775
v 4.0 2.201 5.201414213562374
v 4.0 0.0 5.201414213562374
v 4.0 2.201 5.201414213562374
v 4.0 2.201 4.8042360679775
v 4.0 2.198174859230064 4.798585786437627
v 2.501 0.0 3.702414213562373
v 2.501 0.0 3.2995857864376266
v 2.501 1.4486748592300638 3.2995857864376266
vn -0.0 1.0 -0.0
vn 0.7071067811865477 -0.0 -0.7071067811865475
vn -1.0 -0.0 -0.0
vn -0.0 -1.0 -0.0
vn 1.0 0.0 0.0
vn -0.7071067811865475 -0.0 0.7071067811865475
vn 0.0 -0.894427190999916 0.447213595499958
s 0
f 1//1 2//1 3//1 4//1
f 1//2 6//2 7//2 8//2 2//2
f 2//3 8//3 11//3 12//3 3//3
f 8//4 7//4 11//4
f 1//5 4//5 15//5 6//5
f 4//6 3//6 12//6 15//6
f 15//7 12//7 11//7 7//7 6//7
