o mesh_1679
v 2.501 1.7990000000000002 6.0
v 2.501 0.0 6.0
v 2.034347127088383 0.0 6.0
v 2.034347127088383 1.7990000000000002 6.0
v 2.501 1.7990000000000002 6.0
v 2.034347127088383 1.7990000000000002 6.0
v 1.7359768188655915 1.7990000000000002 4.209778150663251
v 2.501 1.7990000000000002 4.209778150663251
v 2.501 0.0 6.0
v 2.501 1.7990000000000002 6.0
v 2.501 1.7990000000000002 4.209778150663251
v 2.501 1.167917300064866 2.857458079373677
v 2.501 0.0 2.8574580793736772
v 2.501 0.0 6.0
v 2.501 0.0 2.8574580793736772
v 1.7010535748716888 0.0 4.000238686699835
v 2.501 1.7990000000000002 4.209778150663251
v 1.7359768188655915 1.7990000000000002 4.209778150663251
v 1.7010535748716888 1.701214916817073 4.000238686699835
vn -0.0 -0.0 -1.0
vn 0.0 -1.0 0.0
vn -1.0 -0.0 -0.0
vn -0.0 1.0 -0.0
vn -0.0 -0.9061831399952655 0.4228854653311238
vn 0.9863939238321437 0.0 -0.1643989873053573
vn 0.8192319205190404 0.0 0.5734623443633285
s 0
f 1//1 2//1 3//1 4//1
f 1//2 4//2 7//2 8//2
f 2//3 1//3 8//3 12//3 13//3
f 2//4 13//4 16//4 3//4
f 8//5 7//5 19//5 12//5
f 4//6 3//6 16//6 19//6 7//6
f 19//7 16//7 13//7 12//7
