o mesh_421
v 1.499 0.30118610671485246 1.0001769507665057
v 1.132338224368779 0.3011861067148526 1.0001769507665055
v 1.499 0.8145125925985617 2.1001622776601687
v 1.499 0.8145125925985617 2.1001622776601687
v 1.132338224368779 0.3011861067148526 1.0001769507665055
v 0.9246831437465347 0.8618548243949125 0.3772117088997725
v 1.499 1.1490132525216452 2.1001622776601687
v 1.499 0.30118610671485246 1.0001769507665057
v 1.499 0.8145125925985617 2.1001622776601687
v 1.499 1.149013252521645 2.1001622776601687
v 1.499 0.9479591599682557 0.893837722339832
v 1.499 0.3968914122988587 0.8938377223398322
v 1.132338224368779 0.3011861067148526 1.0001769507665055
v 1.499 0.30118610671485246 1.0001769507665057
v 1.499 0.3968914122988587 0.8938377223398322
v 1.3267913288533135 0.8618548243949125 0.3772117088997726
vn 0.0 0.9061831399952655 -0.4228854653311238
vn 0.9486832980505139 -0.0 -0.31622776601683794
vn -1.0 0.0 0.0
vn -0.0 0.7432941462471664 0.6689647316224496
vn -0.9486832980505139 -0.0 0.31622776601683805
vn 0.0 -0.9863939238321436 0.16439898730535726
s 0
f 1//1 2//1 3//1
f 3//2 2//2 6//2 7//2
f 1//3 3//3 7//3 11//3 12//3
f 2//4 1//4 12//4 16//4 6//4
f 12//5 11//5 16//5
f 16//6 11//6 7//6 6//6
