o mesh_610
v 2.501 1.7990000000000002 3.195763932022501
v 2.501 1.7009616736381996 2.9996872792989002
v 2.501 1.7509447581613207 3.299585786437627
v 2.501 1.7990000000000002 3.299585786437627
v 2.501 1.7990000000000002 3.195763932022501
v 2.501 1.7990000000000002 3.299585786437627
v 2.3971781455848737 1.7990000000000002 3.195763932022501
v 2.501 1.7009616736381996 2.9996872792989002
v 2.201101492861273 1.7009616736381996 2.9996872792989002
vn -1.0 -0.0 -0.0
vn 0.0 -1.0 0.0
vn 0.0 0.9863939238321436 -0.16439898730535726
vn -0.0 -0.8944271909999159 0.4472135954999581
vn 0.7071067811865475 0.0 -0.7071067811865475
s 0
f 1//1 2//1 3//1 4//1
f 1//2 4//2 7//2
f 2//3 9//3 3//3
f 2//4 1//4 7//4 9//4
f 4//5 3//5 9//5 7//5
