o mesh_915
v 3.0002038204263766 2.201 4.2016180339887494
v 3.799 3.798592359147248 5.000414213562374
v 3.799 2.201 5.000414213562373
v 3.4030322475511228 2.201 4.2016180339887494
v 3.0002038204263766 2.201 4.2016180339887494
v 3.799 2.201 5.000414213562373
v 3.799 2.201 4.597585786437627
v 3.4030322475511228 2.201 4.2016180339887494
v 3.799 2.201 4.597585786437627
v 3.799 2.992935504897755 4.597585786437627
vn 0.7071067811865475 -0.0 -0.7071067811865475
vn 0.0 1.0 0.0
vn -0.7071067811865475 -0.0 0.7071067811865475
vn 0.0 -0.447213595499958 0.8944271909999157
vn -1.0 0.0 0.0
s 0
f 1//1 2//1 3//1
f 4//2 1//2 3//2 7//2
f 4//3 7//3 10//3
f 1//4 4//4 10//4 2//4
f 3//5 2//5 10//5 7//5
