o mesh_600
v 1.9949183199365117 1.7990000000000002 3.5879172374697035
v 1.7991259679511022 1.7990000000000002 3.000540181513475
v 2.3865030239073306 1.7990000000000002 3.5879172374697035
v 1.9949183199365117 1.7990000000000002 3.5879172374697035
v 1.7991259679511022 1.7011038240072953 3.000540181513475
vn 0.0 -1.0 0.0
vn 0.9486832980505139 -0.0 -0.31622776601683794
vn 0.0 0.9863939238321436 -0.16439898730535726
vn -0.7071067811865477 0.0 0.7071067811865475
s 0
f 1//1 2//1 3//1
f 1//2 5//2 2//2
f 1//3 3//3 5//3
f 3//4 2//4 5//4
