o mesh_568
v 4.0 0.0 6.0
v 2.501 0.0 6.0
v 2.501 2.201 6.0
v 4.0 2.201 6.0
v 4.0 0.0 6.0
v 4.0 2.201 6.0
v 4.0 2.201 5.201414213562374
v 4.0 0.0 5.201414213562374
v 2.501 0.0 6.0
v 4.0 0.0 6.0
v 4.0 0.0 5.201414213562374
v 2.501 0.0 3.702414213562373
v 4.0 2.201 6.0
v 2.501 2.201 6.0
v 2.501 2.201 3.702414213562373
vn -0.0 -0.0 -1.0
vn -1.0 -0.0 -0.0
vn -0.0 1.0 -0.0
vn -0.0 -1.0 -0.0
vn 1.0 0.0 0.0
vn -0.7071067811865477 0.0 0.7071067811865475
s 0
f 1//1 2//1 3//1 4//1
f 1//2 4//2 7//2 8//2
f 2//3 1//3 8//3 12//3
f 4//4 3//4 15//4 7//4
f 3//5 2//5 12//5 15//5
f 8//6 7//6 15//6 12//6
