o mesh_1340
v 4.0 1.2018251407699359 2.001414213562373
v 4.0 1.0499999999999998 1.697763932022501
v 3.696349718460128 1.0499999999999998 1.697763932022501
v 4.0 1.2018251407699359 2.001414213562373
v 4.0 1.3004109272075635 2.001414213562373
v 4.0 1.5018251407699368 1.5985857864376267
v 4.0 1.0995890727924367 1.598585786437627
v 4.0 1.0499999999999998 1.697763932022501
v 4.0 1.5018251407699368 1.5985857864376267
v 3.402414213562373 1.8006180339887503 1.001
v 3.402414213562373 1.3983819660112502 1.001
v 4.0 1.5018251407699368 1.5985857864376267
v 4.0 1.3004109272075635 2.001414213562373
v 3.266940618138376 1.666940618138376 1.268354831700749
v 3.40061803398875 1.8006180339887503 1.001
v 4.0 1.3004109272075635 2.001414213562373
v 4.0 1.2018251407699359 2.001414213562373
v 3.696349718460128 1.0499999999999998 1.697763932022501
v 3.266940618138376 1.2647045501608758 1.2683548317007491
v 3.696349718460128 1.0499999999999998 1.697763932022501
v 4.0 1.0499999999999998 1.697763932022501
v 4.0 1.0995890727924367 1.598585786437627
v 3.402414213562373 1.3983819660112502 1.001
v 3.4006180339887506 1.3983819660112502 1.001
vn 0.0 0.8944271909999159 -0.4472135954999581
vn -1.0 -0.0 -0.0
vn -0.7071067811865475 -0.0 0.7071067811865475
vn 0.0 -0.8944271909999159 -0.4472135954999581
vn 0.7071067811865475 -0.0 -0.7071067811865475
vn 0.0 0.894427190999916 0.447213595499958
vn 0.0 0.0 1.0
vn 0.894427190999916 0.0 0.447213595499958
s 0
f 1//1 2//1 3//1
f 1//2 5//2 6//2 7//2 2//2
f 6//3 10//3 11//3 7//3
f 6//4 5//4 14//4 15//4 10//4
f 5//5 1//5 3//5 19//5 14//5
f 3//6 2//6 7//6 11//6 24//6 19//6
f 10//7 15//7 24//7 11//7
f 19//8 24//8 15//8 14//8
