o mesh_1772
v 1.2989464251283112 4.0 3.999761313300165
v 1.2990000000000002 4.0 3.9996847777691804
v 1.2990000000000002 4.0 4.000082762530299
v 1.2989464251283112 1.802160805687485 3.999761313300165
v 1.2989464251283112 4.0 3.999761313300165
v 1.2990000000000002 4.0 4.000082762530299
v 1.2990000000000002 1.801678631842284 4.000082762530299
v 1.2989464251283112 4.0 3.999761313300165
v 1.2989464251283112 1.802160805687485 3.999761313300165
v 1.2990000000000002 1.8022756089839613 3.9996847777691804
vn -0.0 -1.0 -0.0
vn 0.9863939238321437 -0.0 -0.1643989873053573
vn 0.8192319205190405 -0.0 0.5734623443633283
vn -0.0 0.554700196225229 0.8320502943378437
vn -1.0 0.0 0.0
s 0
f 1//1 2//1 3//1
f 4//2 1//2 3//2 7//2
f 1//3 4//3 10//3 2//3
f 4//4 7//4 10//4
f 3//5 2//5 10//5 7//5
