o mesh_214
v 0.799 0.0 6.0
v 0.799 0.0 5.503610317298282
v 0.5011661903789695 0.0 6.0
v 0.799 0.0 6.0
v 0.5011661903789693 0.0 6.0
v 0.5011661903789695 1.2010307764064043 6.0
v 0.799 1.2010307764064043 6.0
v 0.799 0.0 6.0
v 0.799 1.2010307764064043 6.0
v 0.799 1.3251281970818338 5.503610317298282
vn -0.0 1.0 -0.0
vn -0.0 -0.0 -1.0
vn -1.0 0.0 0.0
vn 0.0 -0.9701425001453318 -0.24253562503633294
vn 0.8574929257125441 0.0 0.5144957554275265
s 0
f 1//1 2//1 3//1
f 1//2 3//2 6//2 7//2
f 1//3 7//3 10//3 2//3
f 7//4 6//4 10//4
f 10//5 6//5 3//5 2//5
