o mesh_2114
v 1.7011804604217164 1.2993631369761842 4.001
v 1.794533399824093 1.560751367302839 4.561117636414261
v 1.7011804604217164 1.7007807764064042 4.001
v 1.7011804604217164 1.2993631369761842 4.001
v 1.7009999999999998 1.2993631369761842 4.001
v 1.7009999999999998 1.560751367302839 4.561117636414261
v 1.7011804604217164 1.2993631369761842 4.001
v 1.7011804604217164 1.7007807764064042 4.001
v 1.7009999999999998 1.7007807764064042 4.001
vn -0.9863939238321437 -0.0 0.1643989873053573
vn -0.0 0.9061831399952655 -0.4228854653311239
vn 0.0 0.0 1.0
vn 0.0 -0.9701425001453318 -0.24253562503633294
vn 1.0 0.0 -0.0
s 0
f 1//1 2//1 3//1
f 1//2 5//2 6//2 2//2
f 1//3 3//3 9//3 5//3
f 3//4 2//4 6//4 9//4
f 9//5 6//5 5//5
