o mesh_145
v 0.799 0.0 1.334828180449675
v 0.799 0.0 1.001
v 0.799 0.3004453624047078 1.001
v 0.799 0.0 1.334828180449675
v 0.799 0.3004453624047078 1.001
v 0.799152872911617 0.3004453624047078 1.001
v 0.8547909029865629 0.0 1.334828180449675
v 0.799 0.0 1.334828180449675
v 0.8547909029865629 0.0 1.334828180449675
v 0.7991528729116171 0.0 1.001
vn 1.0 -0.0 -0.0
vn 0.0 -0.7432941462471664 -0.6689647316224496
vn -0.0 1.0 -0.0
vn 0.0 0.0 1.0
vn -0.9863939238321437 0.0 0.1643989873053573
s 0
f 1//1 2//1 3//1
f 1//2 3//2 6//2 7//2
f 1//3 7//3 10//3 2//3
f 2//4 10//4 6//4 3//4
f 10//5 7//5 6//5
