o mesh_204
v 0.0 0.0 0.0
v 0.0 4.0 0.0
v 0.0 4.0 6.0
v 0.0 0.0 6.0
v 0.0 4.0 0.0
v 0.0 0.0 0.0
v 0.799 0.0 0.0
v 0.799 4.0 0.0
v 0.0 4.0 0.0
v 0.799 4.0 0.0
v 0.799 4.0 4.833056349368384
v 0.09883380962103083 4.0 6.0
v 0.0 0.0 0.0
v 0.0 0.0 6.0
v 0.09883380962103068 0.0 6.0
v 0.799 0.0 4.833056349368385
vn 1.0 -0.0 -0.0
vn -0.0 -0.0 1.0
vn -0.0 -1.0 -0.0
vn -0.0 1.0 -0.0
vn -0.0 -0.0 -1.0
vn -1.0 0.0 0.0
vn -0.8574929257125441 0.0 -0.5144957554275266
s 0
f 1//1 2//1 3//1 4//1
f 2//2 1//2 7//2 8//2
f 2//3 8//3 11//3 12//3 3//3
f 1//4 4//4 15//4 16//4 7//4
f 4//5 3//5 12//5 15//5
f 7//6 16//6 11//6 8//6
f 16//7 15//7 12//7 11//7
