o mesh_1134
v 1.499 1.7990000000000002 0.0
v 1.499 1.7990000000000002 2.1001622776601687
v 1.499 1.5510408400317444 2.1001622776601687
v 1.499 1.2010137937550496 0.0
v 1.499 1.7990000000000002 2.1001622776601687
v 1.7991259679511022 1.7990000000000002 3.000540181513475
v 1.7991259679511022 1.7013881247454872 3.000540181513475
v 1.7988416672129104 1.7009616736381994 2.9996872792989
v 1.499 1.5510408400317444 2.1001622776601687
v 1.7991259679511022 1.7990000000000002 3.000540181513475
v 1.9943497184601282 1.7990000000000002 3.195763932022501
v 1.7991259679511022 1.7013881247454872 3.000540181513475
v 1.7988416672129104 1.7009616736381994 2.9996872792989
v 1.7991259679511022 1.7013881247454872 3.000540181513475
v 1.9943497184601282 1.7990000000000002 3.195763932022501
v 2.501 1.7990000000000002 3.195763932022501
v 2.501 1.7009616736381996 2.9996872792989002
v 1.499 1.7990000000000002 0.0
v 1.499 1.2010137937550496 0.0
v 1.998585786437627 1.2010137937550496 0.0
v 1.998585786437627 1.7990000000000002 0.0
v 2.501 1.7009616736381996 2.9996872792989002
v 2.501 1.7990000000000002 3.195763932022501
v 2.501 1.7990000000000002 0.5024142135623726
v 2.501 1.2847494960154453 0.5024142135623728
vn 1.0 -0.0 -0.0
vn 0.9486832980505139 -0.0 -0.31622776601683794
vn 0.7071067811865477 -0.0 -0.7071067811865475
vn 0.0 0.8944271909999159 -0.4472135954999581
vn -0.0 -0.0 1.0
vn -1.0 -0.0 -0.0
vn 0.0 -1.0 0.0
vn 0.0 0.9863939238321436 -0.16439898730535726
vn -0.7071067811865475 0.0 0.7071067811865475
s 0
f 1//1 2//1 3//1 4//1
f 2//2 6//2 7//2 8//2 3//2
f 6//3 11//3 7//3
f 8//4 7//4 11//4 16//4 17//4
f 1//5 4//5 20//5 21//5
f 17//6 16//6 24//6 25//6
f 16//7 11//7 6//7 2//7 1//7 21//7 24//7
f 4//8 3//8 8//8 17//8 25//8 20//8
f 21//9 20//9 25//9 24//9
