o mesh_1475
v 1.499 2.201 6.0
v 1.499 4.0 6.0
v 3.799 4.0 6.0
v 3.799 2.201 6.0
v 3.799 2.201 6.0
v 3.799 4.0 6.0
v 3.799 4.0 5.000414213562374
v 3.799 2.201 5.000414213562373
v 1.499 4.0 6.0
v 1.499 4.0 3.713970492054895
v 1.9163467029086854 4.0 3.1177609164710587
v 1.499 4.0 6.0
v 1.499 2.201 6.0
v 1.499 2.201 3.7338685170918215
v 1.499 2.23084703755539 3.713970492054895
v 1.499 2.201 6.0
v 3.799 2.201 6.0
v 3.799 2.201 5.000414213562373
v 2.5324543035294482 2.201 3.7338685170918215
v 3.799 2.201 5.000414213562373
v 3.799 4.0 5.000414213562374
v 1.9163467029086854 4.0 3.1177609164710587
v 1.9163467029086854 3.1251614009311446 3.1177609164710587
vn -0.0 -0.0 -1.0
vn -1.0 0.0 0.0
vn -0.0 -1.0 -0.0
vn 1.0 -0.0 -0.0
vn 0.0 1.0 0.0
vn -0.7071067811865475 0.0 0.7071067811865475
vn 0.8192319205190405 -0.0 0.5734623443633283
vn -0.0 0.554700196225229 0.8320502943378437
s 0
f 1//1 2//1 3//1 4//1
f 4//2 3//2 7//2 8//2
f 2//3 10//3 11//3 7//3 3//3
f 2//4 1//4 14//4 15//4 10//4
f 1//5 4//5 8//5 19//5 14//5
f 8//6 7//6 11//6 23//6 19//6
f 11//7 10//7 15//7 23//7
f 19//8 23//8 15//8 14//8
