o mesh_1309
v 4.0 2.201 0.2002360679775006
v 4.0 1.8011708203932502 0.9998944271910001
v 4.0 2.201 1.533
v 2.998783239486708 2.201 1.000197453049082
v 3.3987639320225 2.201 0.2002360679775006
v 4.0 2.201 0.2002360679775006
v 4.0 2.201 1.533
v 3.5315857864376263 2.201 1.533
v 2.998783239486708 2.201 1.000197453049082
v 3.5315857864376263 2.201 1.533
v 2.9987832394867087 1.8013980897868116 1.0001974530490823
v 4.0 2.201 0.2002360679775006
v 3.3987639320225 2.201 0.2002360679775006
v 2.9989347524157495 1.8011708203932502 0.9998944271910004
vn -1.0 -0.0 -0.0
vn -0.0 -1.0 -0.0
vn 0.7071067811865475 -0.0 -0.7071067811865475
vn -0.0 0.8944271909999159 0.4472135954999581
vn 0.894427190999916 -0.0 0.447213595499958
vn 0.0 0.8 -0.6000000000000001
s 0
f 1//1 2//1 3//1
f 4//2 5//2 1//2 3//2 8//2
f 4//3 8//3 11//3
f 1//4 5//4 14//4 2//4
f 5//5 4//5 11//5 14//5
f 3//6 2//6 14//6 11//6 8//6
