o mesh_626
v 2.501 1.6543611334490707 3.8998377223398304
v 2.501 1.5622301626862571 3.7024142135623728
v 2.4022882456112713 1.5161646773048503 3.6037024591736437
v 2.501 1.6543611334490707 3.8998377223398304
v 2.501 1.7990000000000002 3.8998377223398304
v 2.501 1.7990000000000002 3.7024142135623728
v 2.501 1.7990000000000002 3.8998377223398304
v 2.402288245611271 1.7990000000000002 3.6037024591736433
vn 0.0 0.9061831399952655 -0.4228854653311238
vn -1.0 -0.0 -0.0
vn 0.0 -1.0 0.0
vn 0.9486832980505139 0.0 -0.31622776601683805
vn -0.7071067811865477 0.0 0.7071067811865475
s 0
f 1//1 2//1 3//1
f 1//2 5//2 6//2 2//2
f 5//3 8//3 6//3
f 1//4 3//4 8//4 5//4
f 3//5 2//5 6//5 8//5
