o mesh_450
v 1.499 0.0 0.0
v 1.499 0.0 0.8938377223398322
v 1.499 0.3968914122988587 0.8938377223398322
v 1.499 1.201345362404708 0.0
v 1.499 0.0 0.0
v 1.499 1.201345362404708 0.0
v 1.2010540925533892 1.201345362404708 0.0
v 1.2010540925533892 0.0 0.0
vn -1.0 0.0 0.0
vn -0.0 -0.0 1.0
vn -0.0 1.0 -0.0
vn 0.0 -0.7432941462471664 -0.6689647316224496
vn 0.9486832980505139 0.0 -0.31622776601683805
s 0
f 1//1 2//1 3//1 4//1
f 1//2 4//2 7//2 8//2
f 1//3 8//3 2//3
f 4//4 3//4 7//4
f 8//5 7//5 3//5 2//5
