o mesh_1276
v 2.501 2.201 0.5024142135623735
v 2.9987832394867087 2.201 1.0001974530490823
v 2.501 2.201 1.9957639320224998
v 2.501 0.4523251407699358 0.5024142135623735
v 2.501 2.201 0.5024142135623735
v 2.501 2.201 1.9957639320225
v 2.501 1.1989999999999994 1.9957639320224998
v 2.501 0.4523251407699358 0.5024142135623735
v 2.501 1.1989999999999994 1.9957639320225
v 2.9987832394867087 0.7012167605132902 1.0001974530490823
vn -0.0 -1.0 -0.0
vn 1.0 0.0 0.0
vn 0.0 0.8944271909999159 -0.4472135954999581
vn -0.7071067811865475 0.0 0.7071067811865475
vn -0.894427190999916 0.0 -0.447213595499958
s 0
f 1//1 2//1 3//1
f 4//2 1//2 3//2 7//2
f 4//3 7//3 10//3
f 1//4 4//4 10//4 2//4
f 3//5 2//5 10//5 7//5
