o mesh_1530
v 2.4640486326779167 2.201 2.0696666666666665
v 1.9991385199433087 2.8983651691019117 2.9994868921358826
v 1.9991385199433092 2.201 2.9994868921358817
v 2.4640486326779167 2.201 2.0696666666666665
v 1.9991385199433087 2.201 2.9994868921358826
v 2.65001267777176 2.201 2.0696666666666665
vn 0.894427190999916 -0.0 0.447213595499958
vn 0.0 1.0 0.0
vn 0.0 -0.8000000000000002 0.6
vn -0.8192319205190405 0.0 -0.5734623443633283
s 0
f 1//1 2//1 3//1
f 1//2 3//2 6//2
f 1//3 6//3 2//3
f 3//4 2//4 6//4
