o mesh_130
v 1.2009999999999998 0.0 1.334828180449675
v 1.2568184904966622 0.0 1.334828180449675
v 1.2371221972159365 0.0 1.2166504207653208
v 1.2009999999999998 0.0 1.2166504207653208
v 1.2009999999999998 0.0 1.334828180449675
v 1.2009999999999998 0.03631804322006985 1.294474799094042
v 1.25009292693739 0.03631804322006976 1.2944747990940422
vn -0.0 1.0 -0.0
vn 0.0 -0.7432941462471664 -0.6689647316224496
vn 1.0 0.0 0.0
vn -0.9863939238321437 -0.0 0.1643989873053573
vn 0.0 -0.9061831399952655 0.4228854653311239
s 0
f 1//1 2//1 3//1 4//1
f 1//2 6//2 7//2 2//2
f 1//3 4//3 6//3
f 2//4 7//4 3//4
f 7//5 6//5 4//5 3//5
